<mxfile host="app.diagrams.net" modified="2023-11-02T19:13:27.270Z" agent="Mozilla/5.0 (X11; Linux x86_64; rv:109.0) Gecko/20100101 Firefox/114.0" version="22.0.8" etag="RdXBzJfh7RQ1Y8K6Pi31" type="github">
  <diagram name="Page-1" id="YGzHI4bNKkFX8sW-OBtW">
    <mxGraphModel>
      <root>
        <mxCell id="0" />
        <mxCell id="1" parent="0" />
      </root>
    </mxGraphModel>
  </diagram>
</mxfile>
